<svg width="30" height="30" viewBox="0 0 30 30" fill="none" xmlns="http://www.w3.org/2000/svg">
<path d="M14.0933 0.508747C14.4759 -0.169559 15.4528 -0.169561 15.8354 0.508745L20.5974 8.95169C20.687 9.11053 20.8183 9.24184 20.9771 9.33143L29.4201 14.0935C30.0984 14.4761 30.0984 15.4529 29.4201 15.8355L20.9771 20.5975C20.8183 20.6871 20.687 20.8184 20.5974 20.9773L15.8354 29.4202C15.4528 30.0985 14.4759 30.0985 14.0933 29.4202L9.33131 20.9773C9.24172 20.8184 9.11041 20.6871 8.95157 20.5975L0.508625 15.8355C-0.169681 15.4529 -0.169683 14.4761 0.508623 14.0935L8.95157 9.33143C9.11041 9.24184 9.24172 9.11053 9.33131 8.95169L14.0933 0.508747Z" fill="#00B4F9"/>
</svg>
